# xmcd CD database file
#
# Track frame offsets:
#	150
#	21561
#	35394
#	53965
#	67573
#	84046
#	106327
#	125226
#	158481
#	168330
#	181360
#
# Disc length: 2724 seconds
#
# Revision: 1
# Processed by: cddbd v1.5.1PL2 Copyright (c) Steve Scherf et al.
# Submitted via: CDex 1.60beta1
#
DISCID=820aa20b
DTITLE=Bernward Koch - Journey to The Heart
DYEAR=1999
DGENRE=New Age
TTITLE0=Walk in a Meadow
TTITLE1=Little Moritz
TTITLE2=Fragant Memory
TTITLE3=Sausalito
TTITLE4=Lonely Waltz
TTITLE5=Sometime
TTITLE6=Long Way Home
TTITLE7=Journey to the Heart
TTITLE8=Harlequin
TTITLE9=Green Island
TTITLE10=Sunset Glow
EXTD=YEAR: 1999
EXTT0=
EXTT1=
EXTT2=
EXTT3=
EXTT4=
EXTT5=
EXTT6=
EXTT7=
EXTT8=
EXTT9=
EXTT10=
PLAYORDER=
